<svg viewBox="0 0 147 60" fill="none" xmlns="http://www.w3.org/2000/svg"><path d="M32.416 14.163l.046-.048v-.003c-.016.019-.032.035-.046.05zM13.357 30.125a80.458 80.458 0 0 0 2.018-.599c-.531.163-1.087.327-1.672.492-1.733.492-3.72 1.005-8.01 1.752.045.008.093.013.144.021 3.947-.701 5.854-1.196 7.52-1.666zM102.354 34.69l.035.023-.035-.023zM99.395 34.31a2.311 2.311 0 0 0-.194.116c.061-.043.128-.077.194-.117zM98.778 34.822zM53.365 30.252l-.334.32.334-.32zM31.821 14.328a.825.825 0 0 0-.045.048l.045-.048z"></path><path d="M33.908 12.745c-2.584.883-5.091 2.832-7.122 5.105l.359-.178c.832-.41 1.22-.583 1.563-.724.25-.103.476-.188.678-.258-.123.046-.247.096-.386.152-.33.136-.704.3-1.467.675-.038.04-.075.08-.11.12 1.085-.542 1.535-.742 1.923-.901.151-.062.29-.117.425-.168a4.22 4.22 0 0 1 .649-.127c.236-.027.492-.043.723-.027.231.016.439.061.609.157.173.095.308.242.39.39.083.15.11.298.096.516-.013.216-.069.503-.417 1.457.167-.178.316-.359.447-.542 1.159-1.63.805-3.345-1.782-2.746a6.438 6.438 0 0 1 1.819-.955c2.874-.978 6.356-.042 8.353 2.074 2.143 2.27 3.243 6.037 3.437 8.946.01.162.022.324.027.481-2.765-3.403-5.814-4.931-10.291-5.378-.285-.03-.575-.053-.872-.075 7.428 2.188 9.725 6.466 11.628 12.538.064-.146.125-.293.186-.441 2.071-5.134 1.912-12.128-1.507-16.86-2.715-3.765-6.099-4.345-9.358-3.23z"></path><path d="M41.883 29.614a8.716 8.716 0 0 0-.529-1.35 9.061 9.061 0 0 0-.768-1.309c-.29-.404-.614-.757-.981-1.143-.37-.383-.787-.8-1.31-1.23-.524-.431-1.157-.88-1.965-1.378a36.717 36.717 0 0 0-2.066-1.164 59.65 59.65 0 0 0-.944-.487c.479.426.928.84 1.353 1.258.426.417.827.837 1.218 1.284.39.444.771.914 1.14 1.414.373.5.732 1.029 1.072 1.571.34.54.657 1.09.954 1.774.298.68.577 1.494.758 2.36.18.87.26 1.792.22 2.768-.04.976-.199 2.002-.449 3.283.115-.106.224-.213.333-.319.816-.808 1.502-1.688 1.869-2.621.414-1.058.42-2.183.375-2.98-.043-.798-.141-1.274-.28-1.731z"></path><path d="M35.304 33.495c-.043.439-.093.854-.168 1.279-.072.425-.17.864-.327 1.388a19.72 19.72 0 0 1-.696 1.909 61.75 61.75 0 0 1-1.29 2.852c.12-.072.231-.144.343-.213.441-.279.832-.56 1.215-.92.481-.449.96-1.026 1.31-1.568.352-.542.572-1.055.769-1.595.194-.54.364-1.106.486-1.654.123-.547.197-1.074.253-1.624.056-.55.09-1.125.099-1.707a13.888 13.888 0 0 0-.083-1.776 9.76 9.76 0 0 0-.404-1.887 12.129 12.129 0 0 0-.97-2.188 21.771 21.771 0 0 0-1.146-1.824c-.208-.3-.428-.609-.67-.936.234.614.43 1.178.598 1.707.168.532.303 1.032.415 1.518a17.3 17.3 0 0 1 .401 2.89c.027.492.035.991.03 1.491-.006.5-.027.997-.056 1.478-.03.482-.067.944-.11 1.38zM22.545 35.882a.794.794 0 0 0 .285-.162c.122-.104.226-.231.314-.356a9.55 9.55 0 0 0 .39-.606c.117-.197.232-.391.436-.684.2-.284.487-.664.963-1.531l.037-.066c-1.414.747-2.26 1.137-2.948 1.472-.689.335-1.223.612-1.58.843-.358.229-.537.41-.63.636-.09.226-.09.497-.042.808.048.31.146.659.316 1.063.17.404.412.87.718 1.319.306.449.673.882 1.111 1.374.439.49.944 1.034 1.412 1.486.468.452.898.811 1.26 1.093.362.282.651.484 1.026.707.375.223.832.468 1.54.819.707.35 1.666.813 2.456.917-1.162-.526-1.8-.83-2.217-1.05a8.539 8.539 0 0 1-.686-.399 20.63 20.63 0 0 1-1.295-.912c-.399-.303-.744-.59-1.042-.858a12.335 12.335 0 0 1-.821-.806 15.87 15.87 0 0 1-.846-.973 7.906 7.906 0 0 1-.715-1.06 5.52 5.52 0 0 1-.436-1.035 5.574 5.574 0 0 1-.215-.97 5.183 5.183 0 0 1-.027-.875c.016-.274.045-.526.122-.752a1.7 1.7 0 0 1 .325-.57c.127-.14.26-.225.361-.27a.372.372 0 0 1 .162-.035.248.248 0 0 1 .078.016c.069.024.133.077.162.176.032.098.026.242.016.483-.003.245-.019.588.01.758z"></path><path d="M36.662 47.178c-.388-.133-.625-.21-.77-.313a.447.447 0 0 1-.203-.378c-.003-.146.05-.31.197-.595.14-.274.372-.668.457-1.332.003-.024.008-.045.01-.07-.159.062-.316.187-.528.34-.21.153-.476.33-.774.527-.292.197-.617.41-.968.559l-.01.005c-.357.149-.745.229-1.162.284a9.845 9.845 0 0 1-1.372.083 20.754 20.754 0 0 1-1.555-.075 8.426 8.426 0 0 1-1.412-.215 20.967 20.967 0 0 1-2.002-.609 20.463 20.463 0 0 1-1.909-.805c-.619-.293-1.249-.614-1.78-.934-.532-.319-.963-.64-1.442-1.004a26.088 26.088 0 0 1-1.475-1.191 13.989 13.989 0 0 1-1.29-1.314c-.404-.465-.81-.978-1.174-1.544-.009-.014-.02-.027-.027-.04a8.934 8.934 0 0 1-.997-2.143c.104.68.311 1.27.516 1.781.204.51.404.941.675 1.399.274.457.62.94.978 1.425.36.483.731.967 1.13 1.414.399.447.822.856 1.26 1.26.436.404.886.8 1.441 1.191a19.13 19.13 0 0 0 1.744 1.058c.53.29.928.481 1.505.705.577.22 1.334.465 2.084.672a20.75 20.75 0 0 0 2.252.484c.75.114 1.502.184 2.161.237.66.053 1.229.087 1.76.098.532.01 1.032-.01 1.649-.056.616-.045 1.353-.12 2.225-.444l-.008-.002c-.266-.139-.8-.325-1.186-.458zM16.077 33.123a11.49 11.49 0 0 1-.069-.822c-.024-.54.01-.89.064-1.175.077-.412.191-.696.343-.975a6.74 6.74 0 0 1 .603-.902c.26-.34.588-.747 1.611-1.464-.063.01-.13.023-.194.042-.433.12-.832.393-1.148.651-.29.237-.516.466-.907.907-.095.109-.2.226-.319.367.125-1.228.274-1.803.415-2.26.14-.457.277-.792.441-1.159.165-.367.36-.76.548-1.053.189-.295.375-.489.662-.776.287-.29.678-.67 1.51-1.268-.035.01-.07.024-.104.034a4.895 4.895 0 0 0-1.406.745c-.133.1-.245.2-.327.282.13-.745.383-1.269.545-1.622.162-.354.236-.535.372-.782.133-.247.327-.558.505-.843.178-.284.34-.54.556-.79.215-.249.484-.488.7-.685.214-.197.377-.348.64-.534.263-.19.625-.412.93-.662-.603.09-.755.077-.861.042-.107-.034-.165-.087-.186-.21a1.121 1.121 0 0 1 .064-.531c.074-.21.212-.44.35-.623.141-.183.28-.327.492-.54.213-.212.497-.496.835-.78.338-.283.731-.565 1.106-.82.375-.252.736-.476 1.04-.654.303-.175.547-.308.842-.449.295-.143.644-.3.957-.433.24-.101.463-.184.694-.266l.224-.08c.319-.106.675-.215 1.06-.316.386-.101.8-.194 1.138-.266.338-.072.596-.12.92-.165.324-.045.713-.085 1.058-.122.346-.037.651-.075 1.093-.085.444-.011 1.023.005 1.536.005a4.277 4.277 0 0 0-.34-.112c-.51-.14-1.074-.194-1.518-.231a19.238 19.238 0 0 0-1.345-.08 22.81 22.81 0 0 0-1.42.024c-.43.019-.75.05-1.212.117-.463.067-1.069.173-1.667.338-.332.09-.66.2-.957.306-.242.085-.463.17-.649.242-.415.159-.648.257-.989.42-.34.162-.781.39-1.239.67a9.777 9.777 0 0 0-1.32.962 6.81 6.81 0 0 0-1.495 1.903 3.481 3.481 0 0 0-.287.71 5.084 5.084 0 0 0-.13.7c-.024.215-.037.398-.125.605-.088.208-.25.44-.434.681-.18.242-.38.5-.587.808a18.39 18.39 0 0 0-1.164 2.036c-.16.328-.298.641-.405.926-.106.284-.183.54-.308.906-.128.37-.303.854-.433 1.223-.13.373-.216.633-.317.992-.1.359-.22.819-.308 1.255a20.258 20.258 0 0 0-.274 1.978c-.024.29-.053.664-.05 1.04.002.374.034.752.1 1.177.072.425.17.899.54 1.44z"></path><path d="M22.72 22.664a6.558 6.558 0 0 0-.17.117.596.596 0 0 0-.132.117.131.131 0 0 0-.022.128.36.36 0 0 0 .123.143c.064.05.146.101.242.15a2.086 2.086 0 0 0 .64.201c.107.014.21.014.303-.002a.711.711 0 0 0 .261-.101l.003-.003a.913.913 0 0 0 .215-.205c.066-.085.133-.189.197-.303.064-.114.127-.239.196-.367.07-.127.141-.26.224-.388a2.64 2.64 0 0 1 .287-.372c.111-.12.244-.231.407-.338.162-.106.35-.204.576-.3a5.04 5.04 0 0 0-.821.13c-.21.045-.335.07-.452.077a.827.827 0 0 1-.319-.042c-.096-.035-.18-.09-.215-.173a.32.32 0 0 1 .037-.271c.05-.083.13-.136.24-.2.108-.063.244-.135.345-.257-.609.015-.808-.008-1.042-.059-.232-.048-.497-.12-.71-.173a2.921 2.921 0 0 0-.534-.087 1.765 1.765 0 0 0-.458.034c-.002 0-.005 0-.01.003a1.205 1.205 0 0 0-.458.212.884.884 0 0 0-.345.5c-.05.22-.006.497.133.652.04-.186.087-.34.149-.471a.853.853 0 0 1 .196-.276.861.861 0 0 1 .42-.194.921.921 0 0 1 .24-.02.76.76 0 0 1 .48.238.608.608 0 0 1 .158.319c.02.106.032.21.016.316a.692.692 0 0 1-.314.465.912.912 0 0 1-.114.061.519.519 0 0 1-.266.045 1.178 1.178 0 0 1-.452-.164c.069.276.244.335.375.374.133.04.22.062.297.088a.365.365 0 0 1 .178.11c.035.05.04.116.02.164-.022.05-.07.085-.123.122zM17.954 35.016a56.24 56.24 0 0 0 2.467-1c.912-.39 1.888-.816 2.802-1.279.915-.462 1.77-.96 2.659-1.467.888-.508 1.81-1.024 2.49-1.417a24.2 24.2 0 0 0 1.755-1.096c.628-.428 1.436-1.013 2.587-1.773-.016.043-.042.088-.066.133-.152.303-.402.643-.649.957-.284.362-.56.683-.853 1.042-.293.357-.601.747-.912 1.09-.309.343-.617.638-.952.947-.335.308-.694.627-1.273 1.063-.58.439-1.383.994-2.967 1.813.912-.252 1.55-.457 2.034-.64.33-.126.59-.237.816-.346a8.03 8.03 0 0 0 1.281-.774c.37-.266.758-.555 1.13-.912.372-.356.726-.779 1.015-1.145.29-.367.514-.678.734-1.048.22-.372.434-.803.67-1.31.237-.508.479-.843.838-2.837.013.502.018.885.018 1.204 0 .569-.018.925-.05 1.343a19.966 19.966 0 0 1-.218 1.752c-.093.55-.205 1.098-.36 1.632a10.16 10.16 0 0 1-.64 1.656c-.29.601-.673 1.282-1.034 1.88a21.03 21.03 0 0 1-1.207 1.789c-.5.672-1.156 1.505-1.882 2.491.441-.021.826-.12 1.17-.263.337-.141.635-.322.909-.516a7.019 7.019 0 0 0 1.422-1.337 10.71 10.71 0 0 0 1.127-1.718c.335-.627.628-1.297.872-2.004.245-.705.442-1.441.585-2.122.144-.68.234-1.305.277-1.954.042-.646.037-1.318-.03-1.916a9.87 9.87 0 0 0-.316-1.59 17.13 17.13 0 0 0-.444-1.361c-.18-.492-.386-1.088-.654-1.548-.284-.483-.526-.834-.904-1.212a5.943 5.943 0 0 0-.71-.609 11.715 11.715 0 0 0-1.162-.741c1.021.98 1.293 1.273 1.487 1.525.194.256.31.474.398.692.088.215.141.428.176.723.032.295.045.675.026 1.002-.015.327-.06.601-.175.89-.114.29-.226.493-.375.766-.143.269-.417.537-.598.697-.18.162-.417.29-.585.375l-.106.05a1.765 1.765 0 0 1-.42.139c-.221.045-.516.055-.89.077-.376.024-.828.05-1.242.1a8.99 8.99 0 0 0-1.343.274c-.263.07-.564.157-.856.258a6.423 6.423 0 0 0-.596.234c-.1.048-.199.096-.287.144-.069-.433-.029-.686.05-.947.075-.244.19-.502.612-1.257.022-.037.04-.07.061-.109-.792.452-1.32.93-1.712 1.396-.39.465-.64.917-.853 1.433-.213.518-.39 1.1-.93 2.544.125-.093.239-.176.348-.255a28.043 28.043 0 0 1 1.51-1.045c.494-.32 1.015-.63 2.305-1.361l-.104.12c-.821.943-1.449 1.45-2.241 1.972a26.181 26.181 0 0 1-2.9 1.632 35.006 35.006 0 0 1-3.273 1.375l-.231.085a70.045 70.045 0 0 1-4.517 1.43c-1.667.473-3.579.968-7.545 1.67-.154.026-.303.053-.463.082 1.082.173 2.893.112 4.27.013a50.452 50.452 0 0 0 3.206-.327 35.95 35.95 0 0 0 2.706-.446 19.003 19.003 0 0 0 2.574-.763c.042-.008.09-.027.138-.045zM47.884 37.672l.032-.024-.032.024zM95.838 49.672c-.24.102-.463.197-.705.304-.228.1-.475.212-.707.305.08-.029.157-.056.242-.09.245-.099.513-.218.755-.327a39.956 39.956 0 0 1 1.763-.731c-.213.08-.404.154-.601.231-.247.101-.508.208-.747.309zM101.65 34.644a19.085 19.085 0 0 1-.051-.042l.051.042zM98.754 37.013c.016.016.03.037.048.053-.018-.016-.032-.035-.048-.053zM99.98 37.257c-.053.019-.11.032-.16.046.048-.011.102-.027.152-.043.003 0 .005 0 .008-.003zM52.424 31.135c.04-.04.08-.077.12-.115l-.005.006a4.69 4.69 0 0 1-.115.109z"></path><path d="M118.26 50.407a.842.842 0 0 0-.221-.173 1.504 1.504 0 0 0-.266-.122 4.4 4.4 0 0 0-.348-.107 32.36 32.36 0 0 0-.545-.14c-.21-.051-.444-.107-.672-.165a11.667 11.667 0 0 1-.692-.2c-.234-.074-.476-.16-.712-.242-.237-.082-.463-.16-.686-.242a8.574 8.574 0 0 1-.635-.252 3.405 3.405 0 0 1-.54-.303 5.916 5.916 0 0 1-.519-.412c-.162-.141-.308-.28-.446-.399a5.238 5.238 0 0 0-.859-.617c-.146-.082-.279-.146-.404-.207-.128-.061-.245-.122-.362-.176a5.303 5.303 0 0 0-.377-.156 11.633 11.633 0 0 0-.495-.168 7.398 7.398 0 0 0-.643-.167c-.26-.056-.585-.115-.96-.168a19.4 19.4 0 0 0-2.257-.194 32.94 32.94 0 0 0-1.621-.01c-.272.005-.556.02-.862.045-.308.023-.638.055-.954.098-.317.037-.617.082-.928.133-.311.05-.633.106-.965.17-.335.067-.683.14-1.01.223-.327.08-.633.17-.955.271a24.47 24.47 0 0 0-1.714.615c-.25.098-.508.204-.747.305-.24.101-.46.197-.705.303-.245.11-.51.23-.755.327a6.671 6.671 0 0 1-.665.23 4.362 4.362 0 0 1-.54.119 3.795 3.795 0 0 1-.515.034 2.723 2.723 0 0 1-.49-.029 3.038 3.038 0 0 1-.922-.319 2.003 2.003 0 0 1-.367-.263 4.683 4.683 0 0 1-.401-.396 2.922 2.922 0 0 1-.343-.46 5.182 5.182 0 0 1-.292-.596c-.086-.205-.16-.407-.226-.595l-.184-.524c-.056-.162-.103-.314-.16-.455-.052-.14-.116-.273-.185-.433-.072-.16-.152-.348-.261-.55a6.91 6.91 0 0 0-.694-1.034 6.013 6.013 0 0 0-.364-.423 4.993 4.993 0 0 0-.417-.383 7.072 7.072 0 0 0-.537-.404 4.45 4.45 0 0 0-.516-.298 5.697 5.697 0 0 0-.508-.231c-.189-.075-.41-.152-.617-.223a7.642 7.642 0 0 0-.656-.194 15.467 15.467 0 0 0-1.927-.322c-.381-.037-.801-.067-1.24-.075a17.149 17.149 0 0 0-2.61.163c-.426.06-.862.14-1.234.223-.372.082-.683.167-1.077.287-.393.12-.869.274-1.289.417-.417.141-.774.272-1.063.373-.29.1-.508.172-.716.23a3 3 0 0 1-1.316.114 2.156 2.156 0 0 1-.606-.182 4.726 4.726 0 0 1-1.313-.888 9.167 9.167 0 0 1-.79-.84c-.263-.32-.51-.662-.744-.984-.234-.322-.46-.622-.696-.962a40.59 40.59 0 0 1-.726-1.093c-.24-.372-.465-.734-.694-1.103a28.19 28.19 0 0 1-.686-1.173 60.232 60.232 0 0 1-1.308-2.555 119.085 119.085 0 0 1-1.122-2.405c-.18-.41-.364-.84-.555-1.308a122.423 122.423 0 0 1-1.048-2.638 49.636 49.636 0 0 1-.39-1.058c-.12-.332-.23-.651-.328-.936-.098-.284-.188-.537-.258-.75a6.244 6.244 0 0 1-.14-.51 3.008 3.008 0 0 1-.067-.319 1.16 1.16 0 0 1-.008-.303.962.962 0 0 1 .08-.26c.034-.077.072-.146.127-.226.056-.08.13-.17.229-.28.096-.108.215-.236.324-.35.11-.117.208-.224.303-.333.094-.111.184-.226.3-.364.12-.14.267-.303.413-.473.146-.17.295-.348.465-.548.17-.2.362-.422.545-.635.186-.213.364-.415.564-.649.2-.234.415-.502.643-.781a35.752 35.752 0 0 0 1.401-1.81c.231-.312.455-.62.705-.963.25-.343.52-.72.792-1.1.268-.384.532-.77.781-1.144.25-.378.482-.742.67-1.058.19-.316.335-.582.46-.824.125-.245.229-.466.309-.649.08-.183.133-.33.178-.478.048-.15.088-.3.114-.444.027-.147.04-.288.008-.391a.37.37 0 0 0-.162-.208.22.22 0 0 0-.178-.029c.008-.008.013-.018.021-.024.01-.008.021-.013.032-.021a.6.6 0 0 0-.332.138.993.993 0 0 0-.234.343 5.698 5.698 0 0 0-.205.588c-.08.25-.178.563-.306.89-.13.327-.287.665-.433.96-.146.295-.28.545-.42.803-.14.26-.295.529-.476.816-.18.287-.39.595-.59.893-.202.298-.396.588-.62.899-.226.314-.48.651-.744 1-.266.348-.537.704-.784 1.015-.247.311-.473.58-.7.845-.228.266-.46.53-.738.843-.282.314-.614.675-.886.973-.27.298-.48.527-.67.726-.188.2-.353.367-.48.481a1.652 1.652 0 0 1-.206.154c-.034.022-.066.038-.095.053a.683.683 0 0 1-.218.062h-.03a.215.215 0 0 1-.117-.032.36.36 0 0 1-.132-.154 1.304 1.304 0 0 1-.117-.426c-.03-.223-.046-.547-.07-.882a16.318 16.318 0 0 0-.572-3.3 5.426 5.426 0 0 0-.276-.795 2.556 2.556 0 0 0-.082-.154.625.625 0 0 0-.05-.077c-.043-.058-.083-.095-.13-.111l-.033-.006c-.037 0-.071.027-.087.064a.365.365 0 0 0-.024.146c0 .032.002.07.005.112.024.226.112.595.189.962s.143.734.205 1.136c.058.404.108.845.14 1.257.032.41.046.79.064 1.199.016.34.035.7.035 1.008 0 .06 0 .122-.003.178-.01.345-.053.6-.125.83-.074.225-.18.422-.327.616a4.927 4.927 0 0 1-.529.564 9.737 9.737 0 0 1-.635.558c-.234.186-.5.375-.747.547a7.532 7.532 0 0 1-.673.442c-.003 0-.003.002-.005.002-.11.059-.218.107-.282.104a.085.085 0 0 1-.061-.021c-.014-.014-.027-.04-.03-.088v-.032c0-.229.155-.723.274-1.146.125-.446.21-.816.277-1.19.066-.376.114-.756.151-1.085a14.698 14.698 0 0 0 .096-1.55l.003-.266c0-.136 0-.266-.006-.388-.005-.2-.016-.37-.034-.575a9.007 9.007 0 0 0-.085-.683 6.19 6.19 0 0 0-.15-.648 3.606 3.606 0 0 0-.547-1.149 4.728 4.728 0 0 0-.457-.542 3.914 3.914 0 0 0-.813-.622 2.64 2.64 0 0 0-.49-.213c-.194-.061-.42-.114-.58-.202-.159-.085-.265-.207-.385-.399-.093-.146-.194-.33-.279-.457a1.408 1.408 0 0 0-.074-.101c-.04-.043-.075-.07-.12-.07a.095.095 0 0 0-.08.049.244.244 0 0 0-.032.09.738.738 0 0 0-.008.112c0 .09.011.188.024.274.019.12.038.204.038.281a.3.3 0 0 1-.086.22c-.069.075-.199.158-.332.24-.133.083-.266.165-.393.255a3.228 3.228 0 0 0-.785.777 2.373 2.373 0 0 0-.26.478 3.684 3.684 0 0 0-.24.97 3.405 3.405 0 0 0-.015.298c0 .107.005.218.021.333.032.226.098.465.202.656.104.192.245.338.388.439a.998.998 0 0 0 .588.189c.125 0 .255-.021.393-.061.173-.054.36-.141.553-.309.016-.013.03-.021.045-.034.213-.194.436-.482.583-.76.148-.28.218-.546.263-.756.042-.21.06-.37.072-.542.008-.13.01-.266.01-.39 0-.043 0-.086-.002-.123-.003-.154-.014-.266-.022-.375a2.192 2.192 0 0 1-.008-.178c0-.037.003-.07.006-.096.01-.061.023-.074.047-.088a.152.152 0 0 1 .078-.015l.045.002c.018.003.04.008.06.01 0-.012 0-.026.004-.04.058.011.124.027.204.062a1.7 1.7 0 0 1 .349.213c.122.095.241.212.353.359.114.146.218.324.311.523.093.2.173.423.245.665.069.242.13.5.17.776.042.28.066.577.088.878.02.3.034.598.029.938-.008.34-.037.718-.077 1.098-.04.377-.088.752-.157 1.143-.07.391-.16.798-.253 1.173-.093.374-.191.72-.31 1.063-.118.343-.256.683-.4 1.024a12.44 12.44 0 0 1-.467 1.004 8.67 8.67 0 0 1-.564.904c-.213.298-.45.607-.697.89-.247.288-.5.554-.938.987-.439.434-1.063 1.032-1.473 1.439-.412.406-.611.624-.816.858-.207.234-.423.49-.609.715a9.59 9.59 0 0 0-.468.598c-.122.173-.202.317-.29.471-.084.152-.178.314-.252.487l-.18.523c-.049.17-.08.325-.104.49-.024.164-.032.34-.027.507a1.7 1.7 0 0 0 .08.463 1.3 1.3 0 0 0 .183.37.78.78 0 0 0 .553.334c.106.016.22.022.338.006a1.56 1.56 0 0 0 .372-.096c.13-.05.263-.117.407-.202.005-.003.01-.008.016-.01.138-.083.281-.181.433-.301.16-.125.327-.271.513-.452.186-.18.388-.394.588-.627a15.051 15.051 0 0 0 1.121-1.53c.2-.318.431-.717.623-1.063.191-.345.343-.638.491-.93.152-.293.298-.585.434-.867.133-.282.255-.555.422-.949.17-.39.389-.904.55-1.279.163-.374.267-.616.38-.848.115-.23.24-.457.368-.64.127-.184.258-.325.396-.458s.284-.255.423-.364c.138-.109.266-.2.398-.295.133-.098.269-.197.415-.308l.465-.351c.165-.122.338-.253.495-.37l.423-.314c.127-.093.242-.175.334-.241.09-.067.157-.115.221-.141a.688.688 0 0 1 .077-.027h.01c-.002.003-.004.003-.004.006a.146.146 0 0 0 .029-.008.272.272 0 0 1 .066 0 .196.196 0 0 1 .115.04.32.32 0 0 1 .103.124c.035.064.07.16.136.415.064.253.16.662.266 1.138.109.476.231 1.013.385 1.574.152.558.335 1.138.527 1.693.191.556.39 1.085.611 1.633.22.547.465 1.116.713 1.661.247.548.494 1.074.75 1.574.255.5.515.976.73 1.38.216.404.386.736.559 1.066a18.413 18.413 0 0 0 1.6 2.592c.186.25.375.494.593.763.218.266.46.558.715.845.255.287.521.572.808.854.29.281.601.566.864.79a9.76 9.76 0 0 0 1.287.908c.189.11.37.197.548.272.178.077.356.14.534.188.178.048.359.083.593.101.237.019.529.022.805-.002a4.85 4.85 0 0 0 .76-.13c.221-.056.402-.12.639-.2.236-.08.532-.175.837-.28.309-.103.63-.215.944-.318.316-.101.627-.197.954-.285.327-.087.676-.172 1.074-.242.402-.069.856-.122 1.274-.156.417-.035.797-.053 1.178-.053a18.964 18.964 0 0 1 2.206.146c.348.047.68.106.994.18a8.177 8.177 0 0 1 1.657.585c.247.117.483.242.715.391.234.149.46.327.672.508.21.183.404.375.57.569.164.194.3.39.427.595.128.205.25.415.362.654.112.24.215.508.295.803.08.295.14.617.189.888.05.271.09.495.149.729.058.23.135.475.215.69.08.216.165.402.263.594.099.191.207.385.325.555.12.17.25.32.358.442.112.12.205.215.314.308a3.758 3.758 0 0 0 .822.521 4.466 4.466 0 0 0 1.23.335c.269.032.567.04.835.032a6.99 6.99 0 0 0 .76-.059c.253-.032.522-.071.88-.14.36-.07.806-.17 1.229-.272.422-.103.824-.21 1.25-.324l1.342-.372c.468-.128.952-.255 1.44-.375.49-.12.987-.234 1.436-.324.45-.09.854-.157 1.221-.208a14.301 14.301 0 0 1 1.986-.143c.303-.006.582-.003.874.008.293.01.588.034.875.072a9.652 9.652 0 0 1 1.528.31c.221.067.426.136.609.2l.535.189c.186.066.398.143.585.215.186.072.34.138.584.202.242.067.575.133.875.16.3.026.572.015.787-.016a2.34 2.34 0 0 0 .489-.128c.114-.042.181-.072.263-.101a1.563 1.563 0 0 1 .737-.082c.149.02.292.066.494.138.202.072.463.165.721.252.26.088.521.168.771.25.25.083.491.165.709.242.216.075.407.141.567.2.162.055.292.098.438.143.147.045.311.09.444.128.133.037.234.06.338.082.104.019.215.03.319.027a.7.7 0 0 0 .284-.05.422.422 0 0 0 .144-.11c.016-.016.035-.034.045-.05a.24.24 0 0 0 .032-.184c-.048-.064-.08-.133-.138-.2zM52.714 16.989a.127.127 0 0 0-.008.019 2.286 2.286 0 0 1-.316.657 1.091 1.091 0 0 1-.325.313.454.454 0 0 1-.334.061c-.093-.026-.16-.106-.205-.194a.75.75 0 0 1-.072-.324 2.402 2.402 0 0 1 .037-.508c.032-.194.088-.404.168-.598.08-.194.178-.367.274-.51.095-.144.183-.255.27-.357.086-.1.168-.191.27-.287a.788.788 0 0 1 .297-.183c.01-.003.09-.037.122.237.016.143.016.337.01.54a4.98 4.98 0 0 1-.055.6c-.03.189-.074.37-.133.534zm1.545-2.169c-.016-.003-.035-.008-.05-.008a.513.513 0 0 1 .05.008zm-.5.28l-.04-.006.04.005zm-.234 13.002c-.003.019-.01.043-.021.074a8.872 8.872 0 0 1-.303.769 9.13 9.13 0 0 1-.205.433v-.003a18.51 18.51 0 0 1-1.316 2.22c-.178.263-.37.537-.596.84-.077.104-.159.208-.239.311-.042.056-.077.107-.122.162-.255.333-.548.694-.806.891-.257.197-.48.231-.63.162-.151-.069-.228-.236-.244-.425-.014-.189.034-.396.12-.625.082-.226.196-.473.345-.718.146-.241.327-.483.497-.693.173-.21.338-.394.516-.583.178-.188.37-.383.566-.58l.593-.581c.194-.195.386-.383.556-.543.17-.16.321-.287.52-.47l.59-.543.017-.013-.003.003c.014-.014.03-.03.043-.04.1-.085.135-.112.122-.048z"></path><path d="M76.54 30.768c.106.006.27.006.441-.015.168-.02.34-.056.463-.115a.57.57 0 0 0 .236-.21.275.275 0 0 0 .021-.202.268.268 0 0 0-.092-.154.42.42 0 0 0-.205-.096.62.62 0 0 0-.298.021c-.013.003-.027.011-.04.016a.948.948 0 0 0-.332.205c-.125.117-.25.287-.316.38-.064.096-.072.117-.054.133.019.019.07.032.176.037z"></path><path d="M68.825 32.066c-.231.026-.439.03-.612.01a1.627 1.627 0 0 1-.414-.1 1.123 1.123 0 0 1-.264-.139c-.085-.058-.186-.138-.295-.157a.387.387 0 0 0-.146.006.496.496 0 0 0-.189.09c-.1.08-.183.202-.255.338-.072.135-.13.292-.17.468-.04.175-.056.372-.035.502.022.13.078.197.16.16a.436.436 0 0 0 .122-.112c.064-.077.136-.191.226-.364a1.02 1.02 0 0 1 .128-.189.193.193 0 0 1 .12-.07c.015 0 .034.004.053.006.031.005.069.016.111.032.13.05.309.133.57.18.26.046.6.057.99-.007.195-.032.402-.08.583-.125.18-.045.332-.088.425-.09.093-.006.125.029.115.082-.01.053-.061.125-.117.218a4.814 4.814 0 0 0-.192.338c-.069.13-.146.281-.212.433-.13.306-.213.622-.234.925-.01.152-.008.3.026.455.035.154.101.313.173.436a1.36 1.36 0 0 0 .508.468c.106.058.231.114.396.164.162.05.361.093.58.112.218.021.457.019.701-.005a4.444 4.444 0 0 0 1.736-.542 4.86 4.86 0 0 0 .67-.45c.389-.308.62-.571.907-.877.191-.205.407-.428.49-.436.012 0 .02.005.028.013.077-.069.139-.117.176-.12.042-.002.05.048.048.147 0 .098-.011.242-.006.404.006.16.022.332.061.492.043.157.11.3.19.422.079.125.172.232.281.327.109.096.237.181.377.253.141.069.293.125.447.165.154.04.314.063.484.077.173.013.356.016.553 0 .197-.016.401-.053.609-.11.207-.055.417-.13.603-.215.027-.01.05-.026.075-.037.082-.045.162-.095.239-.149.327-.22.64-.5.925-.797.144-.149.28-.306.415-.479.135-.175.271-.367.377-.529.104-.165.178-.297.248-.428.138-.263.258-.513.345-.699.045-.093.08-.17.157-.2a.314.314 0 0 1 .104-.013c.17.003.425.104.656.197a8.245 8.245 0 0 1 .843.383c.16.08.343.173.532.276.189.104.385.218.564.338.178.12.342.247.486.375.144.128.266.255.356.361.09.11.146.194.192.293.087.194.122.423.047.598a.52.52 0 0 1-.199.229c-.197.133-.532.231-.859.26a2.032 2.032 0 0 1-.491-.018 2.527 2.527 0 0 1-.492-.144 3.876 3.876 0 0 1-.434-.21 4.762 4.762 0 0 1-.34-.21c-.106-.07-.213-.14-.327-.213a2.49 2.49 0 0 0-.335-.18.794.794 0 0 0-.492-.048c-.01.002-.024.002-.034.005a.38.38 0 0 0-.224.165.485.485 0 0 0-.04.303.606.606 0 0 0 .12.284.983.983 0 0 0 .24.216c.358.25.77.372 1.23.468.117.023.234.047.426.069a8.794 8.794 0 0 0 1.491.064c.263-.006.53-.011.79-.027s.513-.043.76-.075a10.256 10.256 0 0 0 1.991-.48c.202-.072.396-.147.612-.248.053-.026.109-.056.165-.082.114-.045.225-.09.348-.15.212-.1.444-.225.63-.34.106-.066.2-.127.279-.183a.176.176 0 0 1 .067.067c.037.06.071.164.124.292.054.128.128.284.213.42.085.136.184.253.29.35.213.195.457.315.7.386.121.035.241.059.4.08a4.006 4.006 0 0 0 1.196-.024c.198-.037.37-.09.533-.14.162-.054.313-.107.494-.192.061-.03.13-.067.197-.101.1-.037.202-.075.313-.128.181-.085.389-.2.617-.34.189-.114.391-.245.577-.348.04-.014.083-.024.115-.032.122-.021.186 0 .236.034.104.072.168.197.287.367.061.085.138.181.231.277.096.096.21.194.338.274.128.08.269.143.417.194.15.05.306.085.487.111.18.024.383.04.598.03.216-.008.439-.043.668-.11.178-.053.356-.132.526-.223.045-.024.093-.045.138-.072a4.132 4.132 0 0 0 .909-.773 5.251 5.251 0 0 0 .577-.867.386.386 0 0 1 .077-.109.167.167 0 0 1 .12-.026c.008 0 .016.005.024.005.05.01.109.032.197.074.098.048.228.123.348.17.12.048.229.067.348.072.192.008.41-.024.617-.162.173-.114.332-.308.462-.617.008-.018.019-.034.027-.055-.08.063-.157.116-.231.162-.197.12-.375.175-.548.21a.786.786 0 0 1-.207.018 1.06 1.06 0 0 1-.598-.194 1.714 1.714 0 0 1-.253-.218c-.069-.072-.117-.13-.13-.21a.673.673 0 0 1 .026-.268c.024-.093.051-.184.075-.309.024-.122.042-.282.037-.433a1.897 1.897 0 0 0-.074-.444 1.795 1.795 0 0 0-.157-.386 1.266 1.266 0 0 0-.224-.284.721.721 0 0 0-.271-.178.51.51 0 0 0-.303-.01c-.013.002-.029.005-.042.01a.792.792 0 0 0-.293.215.778.778 0 0 0-.133.202c-.01.022-.018.04-.029.059a.307.307 0 0 1-.061.093c-.032.026-.072.016-.218.008a6.034 6.034 0 0 0-.627-.003c-.227.01-.428.043-.607.08a2.488 2.488 0 0 0-.603.202c-.106.05-.205.104-.28.146-.103.061-.159.101-.23.152-.2.143-.5.361-.897.938a5.051 5.051 0 0 1-2.01 1.904c-.069.037-.135.071-.193.1-.25.123-.378.173-.556.237-.175.064-.401.141-.609.192a3.026 3.026 0 0 1-1.069.06 1.694 1.694 0 0 1-.842-.366 1.394 1.394 0 0 1-.357-.41c-.127-.241-.25-.723-.13-1.377.04-.218.106-.454.213-.77.109-.32.258-.716.404-1.112.146-.396.292-.79.415-1.095.122-.306.218-.527.33-.654a.543.543 0 0 1 .273-.168 1.813 1.813 0 0 1 .484-.059c.149 0 .324.014.492.036.165.02.319.053.465.093.146.04.284.087.394.106a.466.466 0 0 0 .257-.021.222.222 0 0 0 .107-.08.133.133 0 0 0 .024-.056c.005-.061-.04-.14-.125-.2a1.044 1.044 0 0 0-.335-.124 9.394 9.394 0 0 0-.779-.114 4.508 4.508 0 0 0-.46-.02c-.194 0-.457.003-.569-.084-.112-.088-.075-.266-.03-.458.046-.191.096-.398.139-.616.045-.218.082-.452.085-.599 0-.148-.032-.21-.077-.244a.128.128 0 0 0-.08-.03.167.167 0 0 0-.072.009.41.41 0 0 0-.191.172c-.064.102-.128.25-.186.415-.059.165-.114.34-.165.5-.05.16-.098.295-.16.447-.063.151-.14.313-.236.414a.51.51 0 0 1-.07.064.7.7 0 0 1-.236.117c-.1.03-.186.04-.308.053-.123.014-.28.032-.45.061a5.93 5.93 0 0 0-.526.12 3.301 3.301 0 0 0-.468.162c-.12.056-.186.112-.215.184-.03.069-.021.151.061.2.082.047.242.06.412.023.17-.037.356-.128.519-.189.164-.064.305-.1.433-.117a.993.993 0 0 1 .338.014c.098.02.18.058.225.143.043.085.048.215.008.415-.04.2-.124.465-.212.726-.088.26-.181.513-.271.763-.088.25-.173.494-.314.821-.144.327-.346.734-.585 1.053a3.435 3.435 0 0 1-.736.72 4.136 4.136 0 0 1-1.55.713c-.16.04-.306.072-.457.09a1.605 1.605 0 0 1-.423.003.368.368 0 0 1-.21-.106c-.117-.13-.03-.261-.085-.471a.94.94 0 0 0-.12-.253 2.94 2.94 0 0 0-.298-.377 4.298 4.298 0 0 0-.537-.492 7.588 7.588 0 0 0-.826-.56 8.593 8.593 0 0 0-.86-.429 29.68 29.68 0 0 0-.845-.359c-.287-.12-.585-.242-.83-.33a4.188 4.188 0 0 0-.595-.172 1.26 1.26 0 0 0-.258-.024.808.808 0 0 0-.087.01c-.075.022-.112.067-.157.165-.045.096-.101.245-.175.426a18.9 18.9 0 0 1-.248.563 4.73 4.73 0 0 1-.218.436 5.275 5.275 0 0 1-.64.877 4.042 4.042 0 0 1-.506.484c-.199.163-.436.317-.622.423 0 0-.002 0-.002.003a2.007 2.007 0 0 1-.47.205c-.15.042-.31.069-.469.087a3.905 3.905 0 0 1-.46.021 2.997 2.997 0 0 1-.425-.045 1.866 1.866 0 0 1-.364-.111 1.516 1.516 0 0 1-.367-.216.884.884 0 0 1-.298-.41c-.061-.175-.064-.395-.053-.595.01-.199.034-.374.085-.582.048-.205.122-.441.18-.66a3.46 3.46 0 0 0 .112-.605c.014-.192 0-.372-.063-.484a.25.25 0 0 0-.248-.13h-.024c-.098.018-.183.095-.255.183a2.379 2.379 0 0 0-.207.314c-.075.127-.162.282-.229.396-.066.114-.117.186-.186.292-.072.107-.162.247-.276.404a6.714 6.714 0 0 1-.404.51c-.16.187-.343.389-.561.58a5.408 5.408 0 0 1-.718.535c-.08.048-.157.095-.24.138-.18.098-.361.183-.544.247a3.045 3.045 0 0 1-1.372.136 2.18 2.18 0 0 1-.497-.107.921.921 0 0 1-.373-.236.919.919 0 0 1-.226-.428 1.799 1.799 0 0 1-.015-.601c.026-.21.082-.415.19-.675.11-.26.272-.577.381-.798.109-.218.167-.335.183-.465.016-.13-.013-.274-.106-.327-.09-.053-.244-.019-.364.018-.12.038-.207.075-.362.13-.151.054-.37.123-.608.182-.237.04-.495.087-.726.114zm21.284 2.871a7.782 7.782 0 0 1-.54.298c.117-.064.234-.13.335-.192.186-.117.333-.22.45-.295a.931.931 0 0 1 .215-.111c-.005.002-.008.002-.01.005-.118.074-.261.178-.45.295zm11.227-3.43a.223.223 0 0 1 .082-.031l-.005.008c-.003 0-.003.002-.005.002.002 0 .002-.002.005-.002l.034-.016a.418.418 0 0 1 .03-.008.085.085 0 0 1 .037 0c.016.002.034.002.053.013a.562.562 0 0 1 .21.245 1.393 1.393 0 0 1 .128.739.362.362 0 0 1-.045.164.094.094 0 0 1-.022.022c-.024.018-.056.021-.106-.003a.809.809 0 0 0 .178.146c-.003.014-.005.03-.011.04-.008.019-.013.04-.024.056-.029.043-.069.067-.154.021a.907.907 0 0 1-.268-.247c-.014-.018-.029-.035-.043-.056a1.449 1.449 0 0 1-.117-.215 2.61 2.61 0 0 1-.064-.247 2.69 2.69 0 0 0-.042-.2v-.098a.884.884 0 0 1 .026-.17.27.27 0 0 1 .123-.162zm-2.385.878c.112-.07.231-.136.359-.194.013-.006.024-.01.037-.013l.056-.022a1.407 1.407 0 0 1 .165-.056c-.032.02-.07.035-.101.056a2.41 2.41 0 0 0-.325.245c-.015.013-.029.032-.045.045.035-.026.07-.056.107-.08a2.34 2.34 0 0 1 .319-.188 1.726 1.726 0 0 1 .316-.12c.01-.003.021-.008.032-.01a1.76 1.76 0 0 1 .33-.049c.098-.008.183-.008.265-.01.086-.003.168-.008.218.053.051.058.067.183.088.311a1.784 1.784 0 0 0 .239.66v.002c.04.064.083.128.128.18.106.128.231.213.292.28.011.01.016.021.024.03.019.026.027.05.03.079v.005a.296.296 0 0 1-.019.096 1.973 1.973 0 0 1-.194.377 4.002 4.002 0 0 1-.332.444 2.933 2.933 0 0 1-.359.349 2.12 2.12 0 0 1-.277.194c-.032.018-.061.04-.093.056-.008.002-.013.008-.021.013l-.027.01.014-.002c.002 0 .005-.003.008-.003-.04.022-.077.045-.117.064a1.84 1.84 0 0 1-.412.13 1.65 1.65 0 0 1-.373.05 1.05 1.05 0 0 1-.385-.063 1.276 1.276 0 0 1-.39-.226 1.407 1.407 0 0 1-.5-1.218c.01-.146.04-.3.092-.449.053-.146.13-.29.224-.42.095-.133.204-.255.31-.353.102-.104.205-.181.317-.253zm-3.62 3.137c.228-.138.475-.3.688-.412.05-.027.096-.048.14-.07-.199.11-.42.25-.624.378a7.036 7.036 0 0 1-.617.34c-.003 0-.005.003-.005.003.133-.072.268-.149.417-.239zm-28.016-3.07c-.008.007-.019.013-.027.023a.056.056 0 0 1 .027-.024zM142.046 34.993c-.234-.003-.404.12-.601.204-.979.415-1.744.644-2.683-.122-1.329-1.082-.414-2.055.085-3.158a255.39 255.39 0 0 1 1.67-3.605c.133-.282.292-.55.372-.862.029-.109-.002-.17-.098-.223-.173-.098-.309-.128-.42-.109-.351.056-.452.582-.614.936a43.682 43.682 0 0 0-.894 2.055c-.574 1.443-1.044 2.882-2.105 4.115-.298.346-.588.612-.949.814a3.238 3.238 0 0 1-.641.271c-.768.237-1.911-.298-1.082-.798a17.49 17.49 0 0 1 1.106-.603l.298-.152c.146-.074.295-.151.444-.234.053-.029.114-.058.175-.09.181-.09.388-.186.588-.292.582-.311 1.076-.692.465-1.133-.558-.401-1.425-.26-2.215.114-.826.394-1.571 1.048-1.789 1.614-.183.473-.074.867-.526 1.149-.04.026-.085.05-.136.074-.367.173-.585.24-.933.322-.938.223-1.654.218-2.217-.566-.875-1.218.93-2.912-1.603-3.074-.941-.06-1.731.043-2.446.383-.497.237-.96.588-1.412 1.082-1.34 1.462-.768 3.05 1.26 3.012a4.889 4.889 0 0 0 2.22-.566c.277-.107.548-.24.816-.396.463-.053.708.505 1.064.704.999.561 2.071.032 2.454-.117.106-.042.223-.1.345-.162l.168-.069c.082-.032.17-.074.26-.122.263-.085.508-.075.673.207.598.715 1.957.47 2.975-.09.324-.178.614-.389.835-.61a.895.895 0 0 1 .358-.238c.588-.187.888.848 1.346 1.132.736.455 1.39.455 2.19.269.271-.064.516-.144.739-.28.131-.08.256-.175.375-.3.149-.157.412-.484.083-.486zm-5.753-2.619l-.043.008h.003l.04-.008zm-1.005.338c.01-.006.024-.011.037-.019a.731.731 0 0 1 .082-.037c.003 0 .006-.003.008-.003a.487.487 0 0 1 .038-.016l.093-.04.039-.016.128-.048c.003 0 .005-.002.011-.002h.002l.144-.048c.008-.003.013-.005.021-.005.048-.014.093-.03.138-.04.003 0 .006-.003.011-.003a1.33 1.33 0 0 1 .133-.032l.011-.002c.042-.011.085-.02.125-.024.015-.003.029-.006.042-.006.016-.002.032-.002.045-.002.014 0 .024-.003.037-.003.014 0 .027 0 .038.003.01 0 .018 0 .026.002a.308.308 0 0 1 .027.008l.018.008c.006.006.011.01.014.016.002.003.005.008.008.01.002.009 0 .017-.003.027 0 .006 0 .008-.003.014a.342.342 0 0 1-.034.056 1.634 1.634 0 0 1-.277.255c-.058.045-.122.087-.186.13-.005.005-.013.008-.018.013-.059.04-.12.077-.181.117-.005.003-.013.008-.019.01-.133.083-.266.16-.385.232-.051.03-.099.059-.144.088a3.494 3.494 0 0 1-.444.231h-.002c-.051.022-.099.04-.147.059-.026.008-.05.018-.074.024-.008.002-.013.005-.021.005-.032.008-.064.016-.093.019h-.008a.262.262 0 0 1-.064 0l-.016-.003c-.019-.005-.037-.01-.048-.024 0 0 0-.003-.003-.003-.01-.01-.013-.029-.016-.047v-.02c.003-.023.006-.05.019-.084.085-.218.247-.375.452-.524a2.282 2.282 0 0 0 .045-.032c.072-.05.152-.1.234-.151-.053.032-.101.063-.151.095.066-.045.135-.087.21-.133.032-.018.063-.037.101-.055zm.954.047zm-8.39 2.518a.907.907 0 0 1 .165-.082c-.165.1-.33.191-.495.273.109-.06.221-.122.33-.19zm-1.896-2.653c.128-.061.258-.12.391-.168-.003 0-.003.003-.005.003-.024.01-.045.024-.067.035.133-.07.269-.133.404-.19.07-.026.139-.05.208-.074.042-.013.082-.031.125-.042.077-.024.151-.037.228-.056.04-.008.077-.021.117-.03a2.53 2.53 0 0 1 .341-.04c.055-.002.106-.002.156-.002.011 0 .019.003.03.003.037.003.077.003.111.008.011 0 .019.003.03.005.032.005.063.008.095.016.008.003.016.005.024.005.029.008.059.014.085.024l.019.008c.027.011.053.019.077.032.008.003.013.008.019.01a.51.51 0 0 1 .061.038c.005.003.008.008.013.01.019.014.037.03.053.046.006.005.008.01.014.016.013.016.029.032.039.048l.014.021c.01.016.018.032.026.05a.15.15 0 0 1 .008.027l.019.05c.003.011.005.022.005.035.003.016.008.032.008.05.003.014.003.03.003.046l.002.042c0 .02-.002.04-.005.059 0 .01 0 .021-.002.034a.829.829 0 0 1-.014.078c-.002.008-.002.013-.002.02-.008.033-.016.065-.027.1v.002c-.146.441-.569.968-1.111 1.361.042-.032.085-.061.125-.093a3.239 3.239 0 0 1-.293.207 3.106 3.106 0 0 1-.353.202c-.003.003-.006.003-.008.006l-.006.002a2.873 2.873 0 0 1-.284.12c.053-.016.106-.032.159-.05-.465.255-.983.412-1.478.369-1.962-.175-.888-1.701.646-2.443zM124.313 29.692c.088-.218.162-.442.221-.67a5.068 5.068 0 0 0 .159-1.226 5.464 5.464 0 0 0-.178-1.47 5.214 5.214 0 0 0-.321-.888 5.84 5.84 0 0 0-.282-.529 5.925 5.925 0 0 0-.718-.949 6.692 6.692 0 0 0-.952-.845c-.159-.117-.324-.229-.492-.343a6.323 6.323 0 0 1-.366-.258 1.295 1.295 0 0 1-.171-.15.534.534 0 0 1-.093-.124.318.318 0 0 1-.037-.125c0-.034.008-.07.024-.101a.196.196 0 0 1 .053-.064l.016-.013c.03-.021.056-.04.085-.056.173-.104.354-.194.537-.28.163-.076.33-.148.497-.217.37-.154.745-.3 1.112-.465.17-.077.337-.16.502-.245l.184-.096a5.93 5.93 0 0 0 1.629-1.34 5.578 5.578 0 0 0 1.098-2.017c.077-.264.136-.535.173-.808.037-.274.056-.55.059-.83a5.487 5.487 0 0 0-.12-1.404 5.173 5.173 0 0 0-.38-1.108 4.87 4.87 0 0 0-1.529-1.84 4.524 4.524 0 0 0-1.821-.779 5.066 5.066 0 0 0-1.021-.088c-.3.006-.601.038-.898.088a7.16 7.16 0 0 0-.779.18 10.261 10.261 0 0 0-1.925.777c-.269.138-.534.282-.792.439-.434.26-.854.545-1.26.848a18.85 18.85 0 0 0-1.492 1.234 18.357 18.357 0 0 0-1.909 2.052c-.252.319-.494.649-.723.986-.175.26-.343.526-.5.798-.143.247-.273.5-.401.76-.162.33-.319.67-.479 1.01-.071.152-.143.306-.226.45-.042.074-.09.148-.143.21-.011.01-.021.018-.029.029a.415.415 0 0 1-.117.087.197.197 0 0 1-.067.02.206.206 0 0 1-.069-.004.563.563 0 0 1-.151-.05c-.054-.024-.107-.05-.16-.077a1.173 1.173 0 0 0-.681-.128 1.29 1.29 0 0 0-.313.067c-.035.01-.069.026-.101.04a1.447 1.447 0 0 0-.245.128 2.181 2.181 0 0 0-.128.09c-.063.05-.124.103-.183.16-.159.145-.314.3-.47.454-.102.1-.203.202-.309.292-.09.08-.186.149-.287.21l-.048.032a1.016 1.016 0 0 1-.803.114 2.327 2.327 0 0 1-.252-.082c-.101-.04-.205-.09-.311-.138-.123-.053-.245-.11-.37-.146-.013-.006-.026-.006-.04-.011-.032-.008-.061-.019-.09-.021a.165.165 0 0 0-.104.013.074.074 0 0 0-.024.021c-.002.006-.005.01-.005.016a.14.14 0 0 0 .005.056.367.367 0 0 0 .056.096c.04.05.088.1.141.149a3.402 3.402 0 0 0 .479.37c.186.121.377.217.574.28.196.065.396.097.595.083a1.407 1.407 0 0 0 .569-.165c.021-.01.043-.026.064-.04a2.59 2.59 0 0 0 .269-.185c.127-.101.255-.213.382-.32.115-.093.229-.183.351-.26.064-.04.133-.075.202-.104a.616.616 0 0 1 .189-.05.57.57 0 0 1 .412.1.596.596 0 0 1 .207.276c.03.078.046.16.054.246.005.072.002.146-.003.218-.011.111-.027.22-.048.33-.04.204-.093.404-.154.603-.064.207-.136.415-.21.62-.117.321-.239.643-.364.962-.085.215-.168.43-.25.646-.091.234-.178.47-.266.707-.136.367-.266.736-.391 1.109a53.033 53.033 0 0 0-.784 2.496c-.106.38-.207.763-.301 1.146-.05.21-.101.422-.143.635a17.222 17.222 0 0 0-.242 1.438c-.037.303-.069.61-.096.92a12.27 12.27 0 0 0-.048 1.002c0 .139.008.277.027.41.027.17.077.332.157.462a.543.543 0 0 0 .165.176.327.327 0 0 0 .098.043c.035.01.069.01.104.01a.534.534 0 0 0 .276-.12 1.664 1.664 0 0 0 .263-.28c.075-.1.144-.206.208-.315a8.544 8.544 0 0 0 .481-.994 27.015 27.015 0 0 0 .675-1.795c.093-.268.181-.54.266-.81a36.507 36.507 0 0 0 .721-2.56c.125-.522.236-1.046.332-1.572.069-.39.13-.784.181-1.18.061-.479.106-.96.143-1.441.032-.41.059-.816.091-1.226.032-.428.071-.856.125-1.279.031-.233.066-.465.114-.696a7.107 7.107 0 0 1 .622-1.816c.096-.194.199-.385.311-.574.13-.226.271-.447.415-.665a18.868 18.868 0 0 1 1.257-1.667 22.096 22.096 0 0 1 2.084-2.167c.322-.292.654-.574.992-.845a17.557 17.557 0 0 1 1.518-1.082c.274-.17.558-.332.848-.476.019-.01.04-.018.059-.026a8.61 8.61 0 0 1 .704-.306c.216-.08.434-.149.657-.205.189-.045.38-.082.571-.103.325-.038.649-.04.971 0a3.514 3.514 0 0 1 1.204.367c.181.09.356.196.521.319.144.1.277.212.407.332a5.1 5.1 0 0 1 1.332 1.97c.074.204.133.415.178.63a4.191 4.191 0 0 1 .035 1.486 3.916 3.916 0 0 1-.117.513 3.52 3.52 0 0 1-.322.76 3.443 3.443 0 0 1-.2.317 3.6 3.6 0 0 1-.268.343c-.12.135-.247.266-.38.388a8.36 8.36 0 0 1-.218.186 7.893 7.893 0 0 1-1.335.87 15.82 15.82 0 0 1-.946.447c-.255.11-.511.222-.766.342-.085.04-.167.082-.25.125a3.062 3.062 0 0 0-.622.375 2.066 2.066 0 0 0-.356.34 1.398 1.398 0 0 0-.285.58c-.018.09-.026.183-.023.273.005.163.037.32.095.47.075.195.186.373.322.54.08.099.17.192.266.285.189.186.391.359.595.53.21.172.423.342.633.515.104.085.205.17.303.258.173.151.34.313.495.484.103.111.202.228.292.35a3.468 3.468 0 0 1 .377.65c.064.148.117.3.16.456.032.12.053.245.072.367a3.28 3.28 0 0 1 .013.771 4.203 4.203 0 0 1-.26 1.103c-.032.086-.07.17-.104.256a6.936 6.936 0 0 1-.62 1.106 10.044 10.044 0 0 1-.757.96 13.632 13.632 0 0 1-1.454 1.403 10.81 10.81 0 0 1-.787.601c-.216.151-.436.295-.66.428-.149.09-.303.167-.46.247l-.148.083c-.211.103-.429.2-.649.282a9.124 9.124 0 0 1-.753.252 9.471 9.471 0 0 1-1.68.314c-.18.018-.359.032-.539.037a5.494 5.494 0 0 1-.888-.043 2.678 2.678 0 0 1-.253-.045 1.645 1.645 0 0 1-.255-.08 1.053 1.053 0 0 1-.184-.1 1.006 1.006 0 0 1-.098-.08.685.685 0 0 1-.191-.335.805.805 0 0 1 .01-.436.916.916 0 0 1 .077-.181 1.35 1.35 0 0 1 .179-.255c.069-.08.148-.157.231-.226a4.044 4.044 0 0 1 .617-.412 6.015 6.015 0 0 1 .736-.351c.322-.13.649-.242.981-.338.396-.114.8-.212 1.204-.3.519-.115 1.037-.218 1.558-.333.266-.058.529-.12.795-.194.08-.02.162-.047.245-.077a1.42 1.42 0 0 0 .226-.098.577.577 0 0 0 .063-.04l.006-.008a.15.15 0 0 0 .048-.053c.002-.008.005-.016.005-.024a.064.064 0 0 0-.005-.019.079.079 0 0 0-.03-.029.344.344 0 0 0-.09-.04 1.836 1.836 0 0 0-.415-.066 6.273 6.273 0 0 0-.67.002 25.928 25.928 0 0 0-1.215.101 24.2 24.2 0 0 0-.64.08c-.282.04-.564.088-.846.146-.529.107-1.053.245-1.563.42a8.938 8.938 0 0 0-.832.33c-.104.048-.202.104-.303.154a5 5 0 0 0-.678.412 3.39 3.39 0 0 0-.508.447c-.077.082-.149.17-.213.263a1.555 1.555 0 0 0-.26.662 1.388 1.388 0 0 0 .308 1.087c.072.09.155.173.242.248.194.165.412.292.652.385.167.067.343.117.523.152.165.034.333.056.5.074.316.032.633.04.949.027a9.52 9.52 0 0 0 1.428-.157 11.579 11.579 0 0 0 1.733-.463 13.17 13.17 0 0 0 1.667-.717l.308-.16a13.3 13.3 0 0 0 1.976-1.319 11.61 11.61 0 0 0 1.651-1.621 8.96 8.96 0 0 0 .797-1.12c.149-.287.293-.571.412-.866zm-16.264 1.954c.074-.47.18-.944.276-1.407.154-.736.346-1.446.529-2.164.183-.717.378-1.43.561-2.145.024-.088.045-.178.066-.266v.003c.16-.636.314-1.287.54-1.856.048-.125.069-.114.072-.042.008.14-.043.523-.061.667-.024.178-.051.354-.08.532-.051.321-.106.64-.17.957-.146.733-.295 1.47-.457 2.198-.006.03-.016.064-.024.104 0 .005-.003.01-.003.016l-.035.144-.002.013-.093.383c-.003.013-.008.026-.011.042-.016.07-.034.141-.053.216l-.011.042c-.042.165-.085.34-.133.524-.002.005-.002.013-.005.018l-.074.287-.003.011c-.213.806-.463 1.675-.657 2.162a.617.617 0 0 0 .03-.078c-.075.194-.141.343-.197.415l-.005.005c-.006.006-.008.011-.014.016-.207.237-.024-.553.014-.797z"></path></svg>